<svg xmlns="http://www.w3.org/2000/svg" viewBox="0 0 512 512"><!--! Font Awesome Free 6.7.2 by @fontawesome - https://fontawesome.com License - https://fontawesome.com/license/free (Icons: CC BY 4.0, Fonts: SIL OFL 1.1, Code: MIT License) --><path d="M512 160c0 35.3-28.7 64-64 64l-168 0-24 0-73.6 0C163.8 262.1 135 288 99.2 288L64 288l0 64 128 0c35.3 0 64 28.7 64 64l0 32c0 35.3-28.7 64-64 64l-128 0c-35.3 0-64-28.7-64-64l0-32c0-35.3 28.7-64 64-64l35.2 0c24.2-16.9 40.6-44.1 43.5-75.3C117 269.4 96 241.3 96 208l0-32c0-35.3 28.7-64 64-64l73.6 0 24 0 168 0c0-17.7 14.3-32 32-32l32 0c17.7 0 32 14.3 32 32l0 16c0 17.7-14.3 32-32 32l-32 0c-17.7 0-32-14.3-32-32zM64 416l0 32c0 17.7 14.3 32 32 32l128 0c17.7 0 32-14.3 32-32l0-32c0-17.7-14.3-32-32-32L96 384c-17.7 0-32 14.3-32 32zm64-208a32 32 0 1 0 0 64 32 32 0 1 0 0-64z"/></svg>
